<?xml version="1.0" encoding="utf-8" standalone="no"?>
<!DOCTYPE svg PUBLIC "-//W3C//DTD SVG 1.1//EN"
  "http://www.w3.org/Graphics/SVG/1.1/DTD/svg11.dtd">
<!-- Created with matplotlib (http://matplotlib.org/) -->
<svg height="345.6pt" version="1.1" viewBox="0 0 460.8 345.6" width="460.8pt" xmlns="http://www.w3.org/2000/svg" xmlns:xlink="http://www.w3.org/1999/xlink">
 <defs>
  <style type="text/css">
*{stroke-linecap:butt;stroke-linejoin:round;}
  </style>
 </defs>
 <g id="figure_1">
  <g id="patch_1">
   <path d="M 0 345.6 
L 460.8 345.6 
L 460.8 0 
L 0 0 
z
" style="fill:#ffffff;"/>
  </g>
  <g id="axes_1">
   <g id="patch_2">
    <path d="M 58.508212 148.08275 
L 447.48 148.08275 
L 447.48 13.32 
L 58.508212 13.32 
z
" style="fill:#ffffff;"/>
   </g>
   <g id="matplotlib.axis_1">
    <g id="xtick_1"/>
    <g id="xtick_2"/>
    <g id="xtick_3"/>
    <g id="xtick_4"/>
    <g id="xtick_5"/>
    <g id="xtick_6"/>
    <g id="xtick_7"/>
    <g id="xtick_8"/>
    <g id="xtick_9"/>
    <g id="xtick_10"/>
    <g id="xtick_11"/>
    <g id="xtick_12"/>
    <g id="xtick_13"/>
    <g id="xtick_14"/>
    <g id="xtick_15"/>
    <g id="xtick_16"/>
    <g id="xtick_17"/>
    <g id="xtick_18"/>
    <g id="xtick_19"/>
    <g id="xtick_20"/>
    <g id="xtick_21"/>
    <g id="xtick_22"/>
    <g id="xtick_23"/>
    <g id="xtick_24"/>
    <g id="xtick_25"/>
    <g id="xtick_26"/>
    <g id="xtick_27"/>
    <g id="xtick_28"/>
    <g id="xtick_29"/>
    <g id="xtick_30"/>
    <g id="xtick_31"/>
    <g id="xtick_32"/>
    <g id="xtick_33"/>
    <g id="xtick_34"/>
    <g id="xtick_35"/>
    <g id="xtick_36"/>
    <g id="xtick_37"/>
    <g id="xtick_38"/>
    <g id="xtick_39"/>
    <g id="xtick_40"/>
    <g id="xtick_41"/>
    <g id="xtick_42"/>
    <g id="xtick_43"/>
    <g id="xtick_44"/>
    <g id="xtick_45"/>
    <g id="xtick_46"/>
    <g id="xtick_47"/>
    <g id="xtick_48"/>
    <g id="xtick_49"/>
    <g id="xtick_50"/>
    <g id="xtick_51"/>
    <g id="xtick_52"/>
    <g id="xtick_53"/>
    <g id="xtick_54"/>
    <g id="xtick_55"/>
    <g id="xtick_56"/>
    <g id="xtick_57"/>
    <g id="xtick_58"/>
    <g id="xtick_59"/>
    <g id="xtick_60"/>
    <g id="xtick_61"/>
    <g id="xtick_62"/>
    <g id="xtick_63"/>
    <g id="xtick_64"/>
    <g id="xtick_65"/>
    <g id="xtick_66"/>
    <g id="xtick_67"/>
    <g id="xtick_68"/>
    <g id="xtick_69"/>
    <g id="xtick_70"/>
   </g>
   <g id="matplotlib.axis_2">
    <g id="ytick_1">
     <g id="line2d_1">
      <defs>
       <path d="M 0 0 
L -3.5 0 
" id="m704da6cd1d" style="stroke:#000000;stroke-width:0.8;"/>
      </defs>
      <g>
       <use style="stroke:#000000;stroke-width:0.8;" x="58.508212" xlink:href="#m704da6cd1d" y="136.438502"/>
      </g>
     </g>
     <g id="text_1">
      <!-- $\mathdefault{-10^{6}}$ -->
      <defs>
       <path d="M 10.59375 35.5 
L 73.1875 35.5 
L 73.1875 27.203125 
L 10.59375 27.203125 
z
" id="DejaVuSans-2212"/>
       <path d="M 12.40625 8.296875 
L 28.515625 8.296875 
L 28.515625 63.921875 
L 10.984375 60.40625 
L 10.984375 69.390625 
L 28.421875 72.90625 
L 38.28125 72.90625 
L 38.28125 8.296875 
L 54.390625 8.296875 
L 54.390625 0 
L 12.40625 0 
z
" id="DejaVuSans-31"/>
       <path d="M 31.78125 66.40625 
Q 24.171875 66.40625 20.328125 58.90625 
Q 16.5 51.421875 16.5 36.375 
Q 16.5 21.390625 20.328125 13.890625 
Q 24.171875 6.390625 31.78125 6.390625 
Q 39.453125 6.390625 43.28125 13.890625 
Q 47.125 21.390625 47.125 36.375 
Q 47.125 51.421875 43.28125 58.90625 
Q 39.453125 66.40625 31.78125 66.40625 
z
M 31.78125 74.21875 
Q 44.046875 74.21875 50.515625 64.515625 
Q 56.984375 54.828125 56.984375 36.375 
Q 56.984375 17.96875 50.515625 8.265625 
Q 44.046875 -1.421875 31.78125 -1.421875 
Q 19.53125 -1.421875 13.0625 8.265625 
Q 6.59375 17.96875 6.59375 36.375 
Q 6.59375 54.828125 13.0625 64.515625 
Q 19.53125 74.21875 31.78125 74.21875 
z
" id="DejaVuSans-30"/>
       <path d="M 33.015625 40.375 
Q 26.375 40.375 22.484375 35.828125 
Q 18.609375 31.296875 18.609375 23.390625 
Q 18.609375 15.53125 22.484375 10.953125 
Q 26.375 6.390625 33.015625 6.390625 
Q 39.65625 6.390625 43.53125 10.953125 
Q 47.40625 15.53125 47.40625 23.390625 
Q 47.40625 31.296875 43.53125 35.828125 
Q 39.65625 40.375 33.015625 40.375 
z
M 52.59375 71.296875 
L 52.59375 62.3125 
Q 48.875 64.0625 45.09375 64.984375 
Q 41.3125 65.921875 37.59375 65.921875 
Q 27.828125 65.921875 22.671875 59.328125 
Q 17.53125 52.734375 16.796875 39.40625 
Q 19.671875 43.65625 24.015625 45.921875 
Q 28.375 48.1875 33.59375 48.1875 
Q 44.578125 48.1875 50.953125 41.515625 
Q 57.328125 34.859375 57.328125 23.390625 
Q 57.328125 12.15625 50.6875 5.359375 
Q 44.046875 -1.421875 33.015625 -1.421875 
Q 20.359375 -1.421875 13.671875 8.265625 
Q 6.984375 17.96875 6.984375 36.375 
Q 6.984375 53.65625 15.1875 63.9375 
Q 23.390625 74.21875 37.203125 74.21875 
Q 40.921875 74.21875 44.703125 73.484375 
Q 48.484375 72.75 52.59375 71.296875 
z
" id="DejaVuSans-36"/>
      </defs>
      <g transform="translate(25.508212 140.237721)scale(0.1 -0.1)">
       <use transform="translate(0 0.765625)" xlink:href="#DejaVuSans-2212"/>
       <use transform="translate(83.789062 0.765625)" xlink:href="#DejaVuSans-31"/>
       <use transform="translate(147.412109 0.765625)" xlink:href="#DejaVuSans-30"/>
       <use transform="translate(211.992188 39.046875)scale(0.7)" xlink:href="#DejaVuSans-36"/>
      </g>
     </g>
    </g>
    <g id="ytick_2">
     <g id="line2d_2">
      <g>
       <use style="stroke:#000000;stroke-width:0.8;" x="58.508212" xlink:href="#m704da6cd1d" y="124.097082"/>
      </g>
     </g>
     <g id="text_2">
      <!-- $\mathdefault{-10^{5}}$ -->
      <defs>
       <path d="M 10.796875 72.90625 
L 49.515625 72.90625 
L 49.515625 64.59375 
L 19.828125 64.59375 
L 19.828125 46.734375 
Q 21.96875 47.46875 24.109375 47.828125 
Q 26.265625 48.1875 28.421875 48.1875 
Q 40.625 48.1875 47.75 41.5 
Q 54.890625 34.8125 54.890625 23.390625 
Q 54.890625 11.625 47.5625 5.09375 
Q 40.234375 -1.421875 26.90625 -1.421875 
Q 22.3125 -1.421875 17.546875 -0.640625 
Q 12.796875 0.140625 7.71875 1.703125 
L 7.71875 11.625 
Q 12.109375 9.234375 16.796875 8.0625 
Q 21.484375 6.890625 26.703125 6.890625 
Q 35.15625 6.890625 40.078125 11.328125 
Q 45.015625 15.765625 45.015625 23.390625 
Q 45.015625 31 40.078125 35.4375 
Q 35.15625 39.890625 26.703125 39.890625 
Q 22.75 39.890625 18.8125 39.015625 
Q 14.890625 38.140625 10.796875 36.28125 
z
" id="DejaVuSans-35"/>
      </defs>
      <g transform="translate(25.508212 127.896301)scale(0.1 -0.1)">
       <use transform="translate(0 0.684375)" xlink:href="#DejaVuSans-2212"/>
       <use transform="translate(83.789062 0.684375)" xlink:href="#DejaVuSans-31"/>
       <use transform="translate(147.412109 0.684375)" xlink:href="#DejaVuSans-30"/>
       <use transform="translate(211.992188 38.965625)scale(0.7)" xlink:href="#DejaVuSans-35"/>
      </g>
     </g>
    </g>
    <g id="ytick_3">
     <g id="line2d_3">
      <g>
       <use style="stroke:#000000;stroke-width:0.8;" x="58.508212" xlink:href="#m704da6cd1d" y="111.755662"/>
      </g>
     </g>
     <g id="text_3">
      <!-- $\mathdefault{-10^{4}}$ -->
      <defs>
       <path d="M 37.796875 64.3125 
L 12.890625 25.390625 
L 37.796875 25.390625 
z
M 35.203125 72.90625 
L 47.609375 72.90625 
L 47.609375 25.390625 
L 58.015625 25.390625 
L 58.015625 17.1875 
L 47.609375 17.1875 
L 47.609375 0 
L 37.796875 0 
L 37.796875 17.1875 
L 4.890625 17.1875 
L 4.890625 26.703125 
z
" id="DejaVuSans-34"/>
      </defs>
      <g transform="translate(25.508212 115.554881)scale(0.1 -0.1)">
       <use transform="translate(0 0.684375)" xlink:href="#DejaVuSans-2212"/>
       <use transform="translate(83.789062 0.684375)" xlink:href="#DejaVuSans-31"/>
       <use transform="translate(147.412109 0.684375)" xlink:href="#DejaVuSans-30"/>
       <use transform="translate(211.992188 38.965625)scale(0.7)" xlink:href="#DejaVuSans-34"/>
      </g>
     </g>
    </g>
    <g id="ytick_4">
     <g id="line2d_4">
      <g>
       <use style="stroke:#000000;stroke-width:0.8;" x="58.508212" xlink:href="#m704da6cd1d" y="99.414242"/>
      </g>
     </g>
     <g id="text_4">
      <!-- $\mathdefault{-10^{3}}$ -->
      <defs>
       <path d="M 40.578125 39.3125 
Q 47.65625 37.796875 51.625 33 
Q 55.609375 28.21875 55.609375 21.1875 
Q 55.609375 10.40625 48.1875 4.484375 
Q 40.765625 -1.421875 27.09375 -1.421875 
Q 22.515625 -1.421875 17.65625 -0.515625 
Q 12.796875 0.390625 7.625 2.203125 
L 7.625 11.71875 
Q 11.71875 9.328125 16.59375 8.109375 
Q 21.484375 6.890625 26.8125 6.890625 
Q 36.078125 6.890625 40.9375 10.546875 
Q 45.796875 14.203125 45.796875 21.1875 
Q 45.796875 27.640625 41.28125 31.265625 
Q 36.765625 34.90625 28.71875 34.90625 
L 20.21875 34.90625 
L 20.21875 43.015625 
L 29.109375 43.015625 
Q 36.375 43.015625 40.234375 45.921875 
Q 44.09375 48.828125 44.09375 54.296875 
Q 44.09375 59.90625 40.109375 62.90625 
Q 36.140625 65.921875 28.71875 65.921875 
Q 24.65625 65.921875 20.015625 65.03125 
Q 15.375 64.15625 9.8125 62.3125 
L 9.8125 71.09375 
Q 15.4375 72.65625 20.34375 73.4375 
Q 25.25 74.21875 29.59375 74.21875 
Q 40.828125 74.21875 47.359375 69.109375 
Q 53.90625 64.015625 53.90625 55.328125 
Q 53.90625 49.265625 50.4375 45.09375 
Q 46.96875 40.921875 40.578125 39.3125 
z
" id="DejaVuSans-33"/>
      </defs>
      <g transform="translate(25.508212 103.213461)scale(0.1 -0.1)">
       <use transform="translate(0 0.765625)" xlink:href="#DejaVuSans-2212"/>
       <use transform="translate(83.789062 0.765625)" xlink:href="#DejaVuSans-31"/>
       <use transform="translate(147.412109 0.765625)" xlink:href="#DejaVuSans-30"/>
       <use transform="translate(211.992188 39.046875)scale(0.7)" xlink:href="#DejaVuSans-33"/>
      </g>
     </g>
    </g>
    <g id="ytick_5">
     <g id="line2d_5">
      <g>
       <use style="stroke:#000000;stroke-width:0.8;" x="58.508212" xlink:href="#m704da6cd1d" y="87.072822"/>
      </g>
     </g>
     <g id="text_5">
      <!-- $\mathdefault{-10^{2}}$ -->
      <defs>
       <path d="M 19.1875 8.296875 
L 53.609375 8.296875 
L 53.609375 0 
L 7.328125 0 
L 7.328125 8.296875 
Q 12.9375 14.109375 22.625 23.890625 
Q 32.328125 33.6875 34.8125 36.53125 
Q 39.546875 41.84375 41.421875 45.53125 
Q 43.3125 49.21875 43.3125 52.78125 
Q 43.3125 58.59375 39.234375 62.25 
Q 35.15625 65.921875 28.609375 65.921875 
Q 23.96875 65.921875 18.8125 64.3125 
Q 13.671875 62.703125 7.8125 59.421875 
L 7.8125 69.390625 
Q 13.765625 71.78125 18.9375 73 
Q 24.125 74.21875 28.421875 74.21875 
Q 39.75 74.21875 46.484375 68.546875 
Q 53.21875 62.890625 53.21875 53.421875 
Q 53.21875 48.921875 51.53125 44.890625 
Q 49.859375 40.875 45.40625 35.40625 
Q 44.1875 33.984375 37.640625 27.21875 
Q 31.109375 20.453125 19.1875 8.296875 
z
" id="DejaVuSans-32"/>
      </defs>
      <g transform="translate(25.508212 90.872041)scale(0.1 -0.1)">
       <use transform="translate(0 0.765625)" xlink:href="#DejaVuSans-2212"/>
       <use transform="translate(83.789062 0.765625)" xlink:href="#DejaVuSans-31"/>
       <use transform="translate(147.412109 0.765625)" xlink:href="#DejaVuSans-30"/>
       <use transform="translate(211.992188 39.046875)scale(0.7)" xlink:href="#DejaVuSans-32"/>
      </g>
     </g>
    </g>
    <g id="ytick_6">
     <g id="line2d_6">
      <g>
       <use style="stroke:#000000;stroke-width:0.8;" x="58.508212" xlink:href="#m704da6cd1d" y="74.731402"/>
      </g>
     </g>
     <g id="text_6">
      <!-- $\mathdefault{-10^{1}}$ -->
      <g transform="translate(25.508212 78.530621)scale(0.1 -0.1)">
       <use transform="translate(0 0.684375)" xlink:href="#DejaVuSans-2212"/>
       <use transform="translate(83.789062 0.684375)" xlink:href="#DejaVuSans-31"/>
       <use transform="translate(147.412109 0.684375)" xlink:href="#DejaVuSans-30"/>
       <use transform="translate(211.992188 38.965625)scale(0.7)" xlink:href="#DejaVuSans-31"/>
      </g>
     </g>
    </g>
    <g id="ytick_7">
     <g id="line2d_7">
      <g>
       <use style="stroke:#000000;stroke-width:0.8;" x="58.508212" xlink:href="#m704da6cd1d" y="59.248775"/>
      </g>
     </g>
     <g id="text_7">
      <!-- $\mathdefault{-10^{0}}$ -->
      <g transform="translate(25.508212 63.047994)scale(0.1 -0.1)">
       <use transform="translate(0 0.765625)" xlink:href="#DejaVuSans-2212"/>
       <use transform="translate(83.789062 0.765625)" xlink:href="#DejaVuSans-31"/>
       <use transform="translate(147.412109 0.765625)" xlink:href="#DejaVuSans-30"/>
       <use transform="translate(211.992188 39.046875)scale(0.7)" xlink:href="#DejaVuSans-30"/>
      </g>
     </g>
    </g>
    <g id="ytick_8">
     <g id="line2d_8">
      <g>
       <use style="stroke:#000000;stroke-width:0.8;" x="58.508212" xlink:href="#m704da6cd1d" y="52.392431"/>
      </g>
     </g>
     <g id="text_8">
      <!-- $\mathdefault{0}$ -->
      <g transform="translate(45.108212 56.191649)scale(0.1 -0.1)">
       <use transform="translate(0 0.78125)" xlink:href="#DejaVuSans-30"/>
      </g>
     </g>
    </g>
    <g id="ytick_9">
     <g id="line2d_9">
      <g>
       <use style="stroke:#000000;stroke-width:0.8;" x="58.508212" xlink:href="#m704da6cd1d" y="45.536086"/>
      </g>
     </g>
     <g id="text_9">
      <!-- $\mathdefault{10^{0}}$ -->
      <g transform="translate(33.908212 49.335305)scale(0.1 -0.1)">
       <use transform="translate(0 0.765625)" xlink:href="#DejaVuSans-31"/>
       <use transform="translate(63.623047 0.765625)" xlink:href="#DejaVuSans-30"/>
       <use transform="translate(128.203125 39.046875)scale(0.7)" xlink:href="#DejaVuSans-30"/>
      </g>
     </g>
    </g>
    <g id="ytick_10">
     <g id="line2d_10">
      <g>
       <use style="stroke:#000000;stroke-width:0.8;" x="58.508212" xlink:href="#m704da6cd1d" y="30.053459"/>
      </g>
     </g>
     <g id="text_10">
      <!-- $\mathdefault{10^{1}}$ -->
      <g transform="translate(33.908212 33.852678)scale(0.1 -0.1)">
       <use transform="translate(0 0.684375)" xlink:href="#DejaVuSans-31"/>
       <use transform="translate(63.623047 0.684375)" xlink:href="#DejaVuSans-30"/>
       <use transform="translate(128.203125 38.965625)scale(0.7)" xlink:href="#DejaVuSans-31"/>
      </g>
     </g>
    </g>
    <g id="ytick_11">
     <g id="line2d_11">
      <g>
       <use style="stroke:#000000;stroke-width:0.8;" x="58.508212" xlink:href="#m704da6cd1d" y="17.712039"/>
      </g>
     </g>
     <g id="text_11">
      <!-- $\mathdefault{10^{2}}$ -->
      <g transform="translate(33.908212 21.511258)scale(0.1 -0.1)">
       <use transform="translate(0 0.765625)" xlink:href="#DejaVuSans-31"/>
       <use transform="translate(63.623047 0.765625)" xlink:href="#DejaVuSans-30"/>
       <use transform="translate(128.203125 39.046875)scale(0.7)" xlink:href="#DejaVuSans-32"/>
      </g>
     </g>
    </g>
    <g id="ytick_12">
     <g id="line2d_12">
      <defs>
       <path d="M 0 0 
L -2 0 
" id="ma02508236c" style="stroke:#000000;stroke-width:0.6;"/>
      </defs>
      <g>
       <use style="stroke:#000000;stroke-width:0.6;" x="58.508212" xlink:href="#ma02508236c" y="136.438502"/>
      </g>
     </g>
    </g>
    <g id="ytick_13">
     <g id="line2d_13">
      <g>
       <use style="stroke:#000000;stroke-width:0.6;" x="58.508212" xlink:href="#ma02508236c" y="124.097082"/>
      </g>
     </g>
    </g>
    <g id="ytick_14">
     <g id="line2d_14">
      <g>
       <use style="stroke:#000000;stroke-width:0.6;" x="58.508212" xlink:href="#ma02508236c" y="111.755662"/>
      </g>
     </g>
    </g>
    <g id="ytick_15">
     <g id="line2d_15">
      <g>
       <use style="stroke:#000000;stroke-width:0.6;" x="58.508212" xlink:href="#ma02508236c" y="99.414242"/>
      </g>
     </g>
    </g>
    <g id="ytick_16">
     <g id="line2d_16">
      <g>
       <use style="stroke:#000000;stroke-width:0.6;" x="58.508212" xlink:href="#ma02508236c" y="87.072822"/>
      </g>
     </g>
    </g>
    <g id="ytick_17">
     <g id="line2d_17">
      <g>
       <use style="stroke:#000000;stroke-width:0.6;" x="58.508212" xlink:href="#ma02508236c" y="74.731402"/>
      </g>
     </g>
    </g>
    <g id="ytick_18">
     <g id="line2d_18">
      <g>
       <use style="stroke:#000000;stroke-width:0.6;" x="58.508212" xlink:href="#ma02508236c" y="59.248775"/>
      </g>
     </g>
    </g>
    <g id="ytick_19">
     <g id="line2d_19">
      <g>
       <use style="stroke:#000000;stroke-width:0.6;" x="58.508212" xlink:href="#ma02508236c" y="52.392431"/>
      </g>
     </g>
    </g>
    <g id="ytick_20">
     <g id="line2d_20">
      <g>
       <use style="stroke:#000000;stroke-width:0.6;" x="58.508212" xlink:href="#ma02508236c" y="45.536086"/>
      </g>
     </g>
    </g>
    <g id="ytick_21">
     <g id="line2d_21">
      <g>
       <use style="stroke:#000000;stroke-width:0.6;" x="58.508212" xlink:href="#ma02508236c" y="30.053459"/>
      </g>
     </g>
    </g>
    <g id="ytick_22">
     <g id="line2d_22">
      <g>
       <use style="stroke:#000000;stroke-width:0.6;" x="58.508212" xlink:href="#ma02508236c" y="17.712039"/>
      </g>
     </g>
    </g>
    <g id="text_12">
     <!-- Pseudopotential -->
     <defs>
      <path d="M 19.671875 64.796875 
L 19.671875 37.40625 
L 32.078125 37.40625 
Q 38.96875 37.40625 42.71875 40.96875 
Q 46.484375 44.53125 46.484375 51.125 
Q 46.484375 57.671875 42.71875 61.234375 
Q 38.96875 64.796875 32.078125 64.796875 
z
M 9.8125 72.90625 
L 32.078125 72.90625 
Q 44.34375 72.90625 50.609375 67.359375 
Q 56.890625 61.8125 56.890625 51.125 
Q 56.890625 40.328125 50.609375 34.8125 
Q 44.34375 29.296875 32.078125 29.296875 
L 19.671875 29.296875 
L 19.671875 0 
L 9.8125 0 
z
" id="DejaVuSans-50"/>
      <path d="M 44.28125 53.078125 
L 44.28125 44.578125 
Q 40.484375 46.53125 36.375 47.5 
Q 32.28125 48.484375 27.875 48.484375 
Q 21.1875 48.484375 17.84375 46.4375 
Q 14.5 44.390625 14.5 40.28125 
Q 14.5 37.15625 16.890625 35.375 
Q 19.28125 33.59375 26.515625 31.984375 
L 29.59375 31.296875 
Q 39.15625 29.25 43.1875 25.515625 
Q 47.21875 21.78125 47.21875 15.09375 
Q 47.21875 7.46875 41.1875 3.015625 
Q 35.15625 -1.421875 24.609375 -1.421875 
Q 20.21875 -1.421875 15.453125 -0.5625 
Q 10.6875 0.296875 5.421875 2 
L 5.421875 11.28125 
Q 10.40625 8.6875 15.234375 7.390625 
Q 20.0625 6.109375 24.8125 6.109375 
Q 31.15625 6.109375 34.5625 8.28125 
Q 37.984375 10.453125 37.984375 14.40625 
Q 37.984375 18.0625 35.515625 20.015625 
Q 33.0625 21.96875 24.703125 23.78125 
L 21.578125 24.515625 
Q 13.234375 26.265625 9.515625 29.90625 
Q 5.8125 33.546875 5.8125 39.890625 
Q 5.8125 47.609375 11.28125 51.796875 
Q 16.75 56 26.8125 56 
Q 31.78125 56 36.171875 55.265625 
Q 40.578125 54.546875 44.28125 53.078125 
z
" id="DejaVuSans-73"/>
      <path d="M 56.203125 29.59375 
L 56.203125 25.203125 
L 14.890625 25.203125 
Q 15.484375 15.921875 20.484375 11.0625 
Q 25.484375 6.203125 34.421875 6.203125 
Q 39.59375 6.203125 44.453125 7.46875 
Q 49.3125 8.734375 54.109375 11.28125 
L 54.109375 2.78125 
Q 49.265625 0.734375 44.1875 -0.34375 
Q 39.109375 -1.421875 33.890625 -1.421875 
Q 20.796875 -1.421875 13.15625 6.1875 
Q 5.515625 13.8125 5.515625 26.8125 
Q 5.515625 40.234375 12.765625 48.109375 
Q 20.015625 56 32.328125 56 
Q 43.359375 56 49.78125 48.890625 
Q 56.203125 41.796875 56.203125 29.59375 
z
M 47.21875 32.234375 
Q 47.125 39.59375 43.09375 43.984375 
Q 39.0625 48.390625 32.421875 48.390625 
Q 24.90625 48.390625 20.390625 44.140625 
Q 15.875 39.890625 15.1875 32.171875 
z
" id="DejaVuSans-65"/>
      <path d="M 8.5 21.578125 
L 8.5 54.6875 
L 17.484375 54.6875 
L 17.484375 21.921875 
Q 17.484375 14.15625 20.5 10.265625 
Q 23.53125 6.390625 29.59375 6.390625 
Q 36.859375 6.390625 41.078125 11.03125 
Q 45.3125 15.671875 45.3125 23.6875 
L 45.3125 54.6875 
L 54.296875 54.6875 
L 54.296875 0 
L 45.3125 0 
L 45.3125 8.40625 
Q 42.046875 3.421875 37.71875 1 
Q 33.40625 -1.421875 27.6875 -1.421875 
Q 18.265625 -1.421875 13.375 4.4375 
Q 8.5 10.296875 8.5 21.578125 
z
M 31.109375 56 
z
" id="DejaVuSans-75"/>
      <path d="M 45.40625 46.390625 
L 45.40625 75.984375 
L 54.390625 75.984375 
L 54.390625 0 
L 45.40625 0 
L 45.40625 8.203125 
Q 42.578125 3.328125 38.25 0.953125 
Q 33.9375 -1.421875 27.875 -1.421875 
Q 17.96875 -1.421875 11.734375 6.484375 
Q 5.515625 14.40625 5.515625 27.296875 
Q 5.515625 40.1875 11.734375 48.09375 
Q 17.96875 56 27.875 56 
Q 33.9375 56 38.25 53.625 
Q 42.578125 51.265625 45.40625 46.390625 
z
M 14.796875 27.296875 
Q 14.796875 17.390625 18.875 11.75 
Q 22.953125 6.109375 30.078125 6.109375 
Q 37.203125 6.109375 41.296875 11.75 
Q 45.40625 17.390625 45.40625 27.296875 
Q 45.40625 37.203125 41.296875 42.84375 
Q 37.203125 48.484375 30.078125 48.484375 
Q 22.953125 48.484375 18.875 42.84375 
Q 14.796875 37.203125 14.796875 27.296875 
z
" id="DejaVuSans-64"/>
      <path d="M 30.609375 48.390625 
Q 23.390625 48.390625 19.1875 42.75 
Q 14.984375 37.109375 14.984375 27.296875 
Q 14.984375 17.484375 19.15625 11.84375 
Q 23.34375 6.203125 30.609375 6.203125 
Q 37.796875 6.203125 41.984375 11.859375 
Q 46.1875 17.53125 46.1875 27.296875 
Q 46.1875 37.015625 41.984375 42.703125 
Q 37.796875 48.390625 30.609375 48.390625 
z
M 30.609375 56 
Q 42.328125 56 49.015625 48.375 
Q 55.71875 40.765625 55.71875 27.296875 
Q 55.71875 13.875 49.015625 6.21875 
Q 42.328125 -1.421875 30.609375 -1.421875 
Q 18.84375 -1.421875 12.171875 6.21875 
Q 5.515625 13.875 5.515625 27.296875 
Q 5.515625 40.765625 12.171875 48.375 
Q 18.84375 56 30.609375 56 
z
" id="DejaVuSans-6f"/>
      <path d="M 18.109375 8.203125 
L 18.109375 -20.796875 
L 9.078125 -20.796875 
L 9.078125 54.6875 
L 18.109375 54.6875 
L 18.109375 46.390625 
Q 20.953125 51.265625 25.265625 53.625 
Q 29.59375 56 35.59375 56 
Q 45.5625 56 51.78125 48.09375 
Q 58.015625 40.1875 58.015625 27.296875 
Q 58.015625 14.40625 51.78125 6.484375 
Q 45.5625 -1.421875 35.59375 -1.421875 
Q 29.59375 -1.421875 25.265625 0.953125 
Q 20.953125 3.328125 18.109375 8.203125 
z
M 48.6875 27.296875 
Q 48.6875 37.203125 44.609375 42.84375 
Q 40.53125 48.484375 33.40625 48.484375 
Q 26.265625 48.484375 22.1875 42.84375 
Q 18.109375 37.203125 18.109375 27.296875 
Q 18.109375 17.390625 22.1875 11.75 
Q 26.265625 6.109375 33.40625 6.109375 
Q 40.53125 6.109375 44.609375 11.75 
Q 48.6875 17.390625 48.6875 27.296875 
z
" id="DejaVuSans-70"/>
      <path d="M 18.3125 70.21875 
L 18.3125 54.6875 
L 36.8125 54.6875 
L 36.8125 47.703125 
L 18.3125 47.703125 
L 18.3125 18.015625 
Q 18.3125 11.328125 20.140625 9.421875 
Q 21.96875 7.515625 27.59375 7.515625 
L 36.8125 7.515625 
L 36.8125 0 
L 27.59375 0 
Q 17.1875 0 13.234375 3.875 
Q 9.28125 7.765625 9.28125 18.015625 
L 9.28125 47.703125 
L 2.6875 47.703125 
L 2.6875 54.6875 
L 9.28125 54.6875 
L 9.28125 70.21875 
z
" id="DejaVuSans-74"/>
      <path d="M 54.890625 33.015625 
L 54.890625 0 
L 45.90625 0 
L 45.90625 32.71875 
Q 45.90625 40.484375 42.875 44.328125 
Q 39.84375 48.1875 33.796875 48.1875 
Q 26.515625 48.1875 22.3125 43.546875 
Q 18.109375 38.921875 18.109375 30.90625 
L 18.109375 0 
L 9.078125 0 
L 9.078125 54.6875 
L 18.109375 54.6875 
L 18.109375 46.1875 
Q 21.34375 51.125 25.703125 53.5625 
Q 30.078125 56 35.796875 56 
Q 45.21875 56 50.046875 50.171875 
Q 54.890625 44.34375 54.890625 33.015625 
z
" id="DejaVuSans-6e"/>
      <path d="M 9.421875 54.6875 
L 18.40625 54.6875 
L 18.40625 0 
L 9.421875 0 
z
M 9.421875 75.984375 
L 18.40625 75.984375 
L 18.40625 64.59375 
L 9.421875 64.59375 
z
" id="DejaVuSans-69"/>
      <path d="M 34.28125 27.484375 
Q 23.390625 27.484375 19.1875 25 
Q 14.984375 22.515625 14.984375 16.5 
Q 14.984375 11.71875 18.140625 8.90625 
Q 21.296875 6.109375 26.703125 6.109375 
Q 34.1875 6.109375 38.703125 11.40625 
Q 43.21875 16.703125 43.21875 25.484375 
L 43.21875 27.484375 
z
M 52.203125 31.203125 
L 52.203125 0 
L 43.21875 0 
L 43.21875 8.296875 
Q 40.140625 3.328125 35.546875 0.953125 
Q 30.953125 -1.421875 24.3125 -1.421875 
Q 15.921875 -1.421875 10.953125 3.296875 
Q 6 8.015625 6 15.921875 
Q 6 25.140625 12.171875 29.828125 
Q 18.359375 34.515625 30.609375 34.515625 
L 43.21875 34.515625 
L 43.21875 35.40625 
Q 43.21875 41.609375 39.140625 45 
Q 35.0625 48.390625 27.6875 48.390625 
Q 23 48.390625 18.546875 47.265625 
Q 14.109375 46.140625 10.015625 43.890625 
L 10.015625 52.203125 
Q 14.9375 54.109375 19.578125 55.046875 
Q 24.21875 56 28.609375 56 
Q 40.484375 56 46.34375 49.84375 
Q 52.203125 43.703125 52.203125 31.203125 
z
" id="DejaVuSans-61"/>
      <path d="M 9.421875 75.984375 
L 18.40625 75.984375 
L 18.40625 0 
L 9.421875 0 
z
" id="DejaVuSans-6c"/>
     </defs>
     <g transform="translate(19.428525 121.040437)rotate(-90)scale(0.1 -0.1)">
      <use xlink:href="#DejaVuSans-50"/>
      <use x="60.287109" xlink:href="#DejaVuSans-73"/>
      <use x="112.386719" xlink:href="#DejaVuSans-65"/>
      <use x="173.910156" xlink:href="#DejaVuSans-75"/>
      <use x="237.289062" xlink:href="#DejaVuSans-64"/>
      <use x="300.765625" xlink:href="#DejaVuSans-6f"/>
      <use x="361.947266" xlink:href="#DejaVuSans-70"/>
      <use x="425.423828" xlink:href="#DejaVuSans-6f"/>
      <use x="486.605469" xlink:href="#DejaVuSans-74"/>
      <use x="525.814453" xlink:href="#DejaVuSans-65"/>
      <use x="587.337891" xlink:href="#DejaVuSans-6e"/>
      <use x="650.716797" xlink:href="#DejaVuSans-74"/>
      <use x="689.925781" xlink:href="#DejaVuSans-69"/>
      <use x="717.708984" xlink:href="#DejaVuSans-61"/>
      <use x="778.988281" xlink:href="#DejaVuSans-6c"/>
     </g>
    </g>
   </g>
   <g id="line2d_23">
    <path clip-path="url(#p232f143dd0)" d="M 76.188748 141.956316 
L 187.032515 114.758219 
L 211.15359 108.619205 
L 225.583793 104.731343 
L 235.699083 101.786437 
L 243.267866 99.360256 
L 249.138978 97.253955 
L 253.807573 95.352843 
L 257.627333 93.563493 
L 260.73973 91.864868 
L 263.286236 90.227481 
L 265.408325 88.599333 
L 267.105996 87.027156 
L 268.520722 85.425987 
L 269.723239 83.725192 
L 270.713547 81.924355 
L 271.491646 80.054792 
L 272.128273 77.957164 
L 272.623427 75.594388 
L 272.977108 73.010944 
L 273.260053 69.478731 
L 273.401526 66.19369 
L 273.89668 35.20515 
L 274.250361 31.3471 
L 274.745515 28.530507 
L 275.311406 26.559869 
L 276.018769 24.907565 
L 276.796868 23.627215 
L 277.71644 22.526754 
L 278.777484 21.59922 
L 279.980001 20.836861 
L 281.394727 20.209525 
L 282.950925 19.76421 
L 284.648596 19.506043 
L 286.48774 19.45323 
L 288.326883 19.619993 
L 290.166027 20.012288 
L 291.863698 20.599799 
L 293.419896 21.370142 
L 294.834622 22.321581 
L 296.037139 23.390409 
L 297.098183 24.62374 
L 298.017755 26.032913 
L 298.795854 27.633108 
L 299.432481 29.436359 
L 299.927635 31.427525 
L 300.352053 34.019753 
L 300.634998 36.865554 
L 300.77647 39.861554 
L 301.483833 68.283851 
L 301.908251 71.851962 
L 302.403405 74.220261 
L 303.040032 76.195149 
L 303.818131 77.842252 
L 304.666966 79.125521 
L 305.657274 80.221871 
L 306.789055 81.135063 
L 308.062308 81.867215 
L 309.477034 82.417929 
L 311.033232 82.785501 
L 312.80164 82.973075 
L 314.852992 82.96029 
L 317.328762 82.711192 
L 320.582632 82.142229 
L 325.675645 80.99618 
L 348.381994 75.45807 
L 386.933272 65.938721 
L 390.045669 64.147036 
L 393.370275 62.494141 
L 396.907089 60.990103 
L 400.656112 59.639561 
L 404.758817 58.403473 
L 409.215204 57.298483 
L 414.096008 56.3199 
L 419.613438 55.446585 
L 425.838232 54.692105 
L 429.799464 54.312207 
L 429.799464 54.312207 
" style="fill:none;stroke:#1f77b4;stroke-linecap:square;stroke-width:1.5;"/>
   </g>
   <g id="line2d_24">
    <path clip-path="url(#p232f143dd0)" d="M 76.188748 141.957067 
L 299.573953 87.267955 
L 313.579739 83.874567 
L 332.890746 79.242689 
L 386.933272 65.938721 
L 390.045669 64.147036 
L 393.370275 62.494141 
L 396.907089 60.990103 
L 400.656112 59.639561 
L 404.758817 58.403473 
L 409.215204 57.298483 
L 414.096008 56.3199 
L 419.613438 55.446585 
L 425.838232 54.692105 
L 429.799464 54.312207 
L 429.799464 54.312207 
" style="fill:none;stroke:#ff7f0e;stroke-linecap:square;stroke-width:1.5;"/>
   </g>
   <g id="line2d_25">
    <path clip-path="url(#p232f143dd0)" d="M 76.188748 141.956596 
L 196.935596 112.340561 
L 221.26888 106.149945 
L 235.769819 102.245196 
L 245.955845 99.283269 
L 253.666101 96.818174 
L 259.749422 94.646464 
L 264.700962 92.647264 
L 268.803667 90.754307 
L 272.199009 88.951651 
L 275.099197 87.170387 
L 277.645703 85.347413 
L 279.838528 83.504308 
L 281.748408 81.607303 
L 283.375343 79.686206 
L 284.790069 77.686533 
L 286.063322 75.499844 
L 287.124366 73.249876 
L 288.043938 70.795588 
L 288.822037 68.093576 
L 289.246455 66.201451 
L 290.590444 53.081277 
L 291.156335 49.911336 
L 291.651489 48.280606 
L 292.00517 47.756502 
L 292.288115 47.715215 
L 292.571061 48.004989 
L 292.924742 48.825428 
L 293.34916 50.468885 
L 293.91505 53.748149 
L 294.551677 58.869528 
L 295.541985 67.347013 
L 296.320084 69.938108 
L 297.239656 72.235766 
L 298.3007 74.283609 
L 299.503217 76.107676 
L 300.77647 77.646628 
L 302.191196 79.014569 
L 303.747394 80.203529 
L 305.374329 81.166163 
L 307.072 81.918691 
L 308.911144 82.487289 
L 310.821024 82.843569 
L 312.872376 82.998133 
L 315.135937 82.940824 
L 317.75318 82.645479 
L 321.148522 82.023656 
L 326.807425 80.723734 
L 364.226923 71.587026 
L 386.933272 65.938721 
L 390.045669 64.147036 
L 393.370275 62.494141 
L 396.907089 60.990103 
L 400.656112 59.639561 
L 404.758817 58.403473 
L 409.215204 57.298483 
L 414.096008 56.3199 
L 419.613438 55.446585 
L 425.838232 54.692105 
L 429.799464 54.312207 
L 429.799464 54.312207 
" style="fill:none;stroke:#2ca02c;stroke-linecap:square;stroke-width:1.5;"/>
   </g>
   <g id="line2d_26">
    <path clip-path="url(#p232f143dd0)" d="M 76.188748 141.957068 
L 386.933272 65.938721 
L 390.045669 64.147036 
L 393.370275 62.494141 
L 396.907089 60.990103 
L 400.656112 59.639561 
L 404.758817 58.403473 
L 409.215204 57.298483 
L 414.096008 56.3199 
L 419.613438 55.446585 
L 425.838232 54.692105 
L 429.799464 54.312207 
L 429.799464 54.312207 
" style="fill:none;stroke:#d62728;stroke-linecap:square;stroke-width:1.5;"/>
   </g>
   <g id="line2d_27">
    <path clip-path="url(#p232f143dd0)" d="M 76.188748 141.956855 
L 214.195251 108.125117 
L 238.670007 101.901126 
L 253.524628 97.906282 
L 264.347281 94.773747 
L 273.33079 91.94677 
L 283.799761 88.39474 
L 290.307499 86.286707 
L 294.127259 85.282436 
L 297.381128 84.65587 
L 300.634998 84.256486 
L 304.879175 83.979785 
L 311.811332 83.531603 
L 315.701828 83.028828 
L 320.016741 82.23759 
L 326.100062 80.873079 
L 346.118433 76.008552 
L 386.862536 65.982468 
L 389.974933 64.184997 
L 393.299538 62.526764 
L 396.836353 61.017869 
L 400.585376 59.662965 
L 404.617345 58.442361 
L 409.073731 57.330222 
L 413.954535 56.345309 
L 419.401229 55.476271 
L 425.626023 54.714457 
L 429.799464 54.312207 
L 429.799464 54.312207 
" style="fill:none;stroke:#9467bd;stroke-linecap:square;stroke-width:1.5;"/>
   </g>
   <g id="line2d_28">
    <path clip-path="url(#p232f143dd0)" d="M 76.188748 141.957067 
L 386.933272 65.938721 
L 390.045669 64.147036 
L 393.370275 62.494141 
L 396.907089 60.990103 
L 400.656112 59.639561 
L 404.758817 58.403473 
L 409.215204 57.298483 
L 414.096008 56.3199 
L 419.613438 55.446585 
L 425.838232 54.692105 
L 429.799464 54.312207 
L 429.799464 54.312207 
" style="fill:none;stroke:#8c564b;stroke-linecap:square;stroke-width:1.5;"/>
   </g>
   <g id="line2d_29">
    <path clip-path="url(#p232f143dd0)" d="M 76.188748 141.95717 
L 230.464598 104.38139 
L 256.91997 98.168647 
L 294.197995 89.514583 
L 301.625306 87.39124 
L 312.094277 84.391964 
L 321.289995 82.083304 
L 387.145481 65.808322 
L 390.257878 64.033884 
L 393.582483 62.3969 
L 397.119298 60.90734 
L 400.868321 59.569799 
L 404.971026 58.34561 
L 409.427413 57.251256 
L 414.378953 56.269573 
L 419.896384 55.407448 
L 426.191913 54.655329 
L 429.799464 54.312207 
L 429.799464 54.312207 
" style="fill:none;stroke:#e377c2;stroke-linecap:square;stroke-width:1.5;"/>
   </g>
   <g id="patch_3">
    <path d="M 58.508212 148.08275 
L 58.508212 13.32 
" style="fill:none;stroke:#000000;stroke-linecap:square;stroke-linejoin:miter;stroke-width:0.8;"/>
   </g>
   <g id="patch_4">
    <path d="M 447.48 148.08275 
L 447.48 13.32 
" style="fill:none;stroke:#000000;stroke-linecap:square;stroke-linejoin:miter;stroke-width:0.8;"/>
   </g>
   <g id="patch_5">
    <path d="M 58.508212 148.08275 
L 447.48 148.08275 
" style="fill:none;stroke:#000000;stroke-linecap:square;stroke-linejoin:miter;stroke-width:0.8;"/>
   </g>
   <g id="patch_6">
    <path d="M 58.508212 13.32 
L 447.48 13.32 
" style="fill:none;stroke:#000000;stroke-linecap:square;stroke-linejoin:miter;stroke-width:0.8;"/>
   </g>
  </g>
  <g id="axes_2">
   <g id="patch_7">
    <path d="M 58.508212 298.6855 
L 447.48 298.6855 
L 447.48 163.92275 
L 58.508212 163.92275 
z
" style="fill:#ffffff;"/>
   </g>
   <g id="matplotlib.axis_3">
    <g id="xtick_71">
     <g id="line2d_30">
      <defs>
       <path d="M 0 0 
L 0 3.5 
" id="mf76643bf40" style="stroke:#000000;stroke-width:0.8;"/>
      </defs>
      <g>
       <use style="stroke:#000000;stroke-width:0.8;" x="76.188748" xlink:href="#mf76643bf40" y="298.6855"/>
      </g>
     </g>
     <g id="text_13">
      <!-- $\mathdefault{10^{-5}}$ -->
      <g transform="translate(64.438748 313.283937)scale(0.1 -0.1)">
       <use transform="translate(0 0.684375)" xlink:href="#DejaVuSans-31"/>
       <use transform="translate(63.623047 0.684375)" xlink:href="#DejaVuSans-30"/>
       <use transform="translate(128.203125 38.965625)scale(0.7)" xlink:href="#DejaVuSans-2212"/>
       <use transform="translate(186.855469 38.965625)scale(0.7)" xlink:href="#DejaVuSans-35"/>
      </g>
     </g>
    </g>
    <g id="xtick_72">
     <g id="line2d_31">
      <g>
       <use style="stroke:#000000;stroke-width:0.8;" x="126.704565" xlink:href="#mf76643bf40" y="298.6855"/>
      </g>
     </g>
     <g id="text_14">
      <!-- $\mathdefault{10^{-4}}$ -->
      <g transform="translate(114.954565 313.283937)scale(0.1 -0.1)">
       <use transform="translate(0 0.684375)" xlink:href="#DejaVuSans-31"/>
       <use transform="translate(63.623047 0.684375)" xlink:href="#DejaVuSans-30"/>
       <use transform="translate(128.203125 38.965625)scale(0.7)" xlink:href="#DejaVuSans-2212"/>
       <use transform="translate(186.855469 38.965625)scale(0.7)" xlink:href="#DejaVuSans-34"/>
      </g>
     </g>
    </g>
    <g id="xtick_73">
     <g id="line2d_32">
      <g>
       <use style="stroke:#000000;stroke-width:0.8;" x="177.220381" xlink:href="#mf76643bf40" y="298.6855"/>
      </g>
     </g>
     <g id="text_15">
      <!-- $\mathdefault{10^{-3}}$ -->
      <g transform="translate(165.470381 313.283937)scale(0.1 -0.1)">
       <use transform="translate(0 0.765625)" xlink:href="#DejaVuSans-31"/>
       <use transform="translate(63.623047 0.765625)" xlink:href="#DejaVuSans-30"/>
       <use transform="translate(128.203125 39.046875)scale(0.7)" xlink:href="#DejaVuSans-2212"/>
       <use transform="translate(186.855469 39.046875)scale(0.7)" xlink:href="#DejaVuSans-33"/>
      </g>
     </g>
    </g>
    <g id="xtick_74">
     <g id="line2d_33">
      <g>
       <use style="stroke:#000000;stroke-width:0.8;" x="227.736198" xlink:href="#mf76643bf40" y="298.6855"/>
      </g>
     </g>
     <g id="text_16">
      <!-- $\mathdefault{10^{-2}}$ -->
      <g transform="translate(215.986198 313.283937)scale(0.1 -0.1)">
       <use transform="translate(0 0.765625)" xlink:href="#DejaVuSans-31"/>
       <use transform="translate(63.623047 0.765625)" xlink:href="#DejaVuSans-30"/>
       <use transform="translate(128.203125 39.046875)scale(0.7)" xlink:href="#DejaVuSans-2212"/>
       <use transform="translate(186.855469 39.046875)scale(0.7)" xlink:href="#DejaVuSans-32"/>
      </g>
     </g>
    </g>
    <g id="xtick_75">
     <g id="line2d_34">
      <g>
       <use style="stroke:#000000;stroke-width:0.8;" x="278.252014" xlink:href="#mf76643bf40" y="298.6855"/>
      </g>
     </g>
     <g id="text_17">
      <!-- $\mathdefault{10^{-1}}$ -->
      <g transform="translate(266.502014 313.283937)scale(0.1 -0.1)">
       <use transform="translate(0 0.684375)" xlink:href="#DejaVuSans-31"/>
       <use transform="translate(63.623047 0.684375)" xlink:href="#DejaVuSans-30"/>
       <use transform="translate(128.203125 38.965625)scale(0.7)" xlink:href="#DejaVuSans-2212"/>
       <use transform="translate(186.855469 38.965625)scale(0.7)" xlink:href="#DejaVuSans-31"/>
      </g>
     </g>
    </g>
    <g id="xtick_76">
     <g id="line2d_35">
      <g>
       <use style="stroke:#000000;stroke-width:0.8;" x="328.767831" xlink:href="#mf76643bf40" y="298.6855"/>
      </g>
     </g>
     <g id="text_18">
      <!-- $\mathdefault{10^{0}}$ -->
      <g transform="translate(319.967831 313.283937)scale(0.1 -0.1)">
       <use transform="translate(0 0.765625)" xlink:href="#DejaVuSans-31"/>
       <use transform="translate(63.623047 0.765625)" xlink:href="#DejaVuSans-30"/>
       <use transform="translate(128.203125 39.046875)scale(0.7)" xlink:href="#DejaVuSans-30"/>
      </g>
     </g>
    </g>
    <g id="xtick_77">
     <g id="line2d_36">
      <g>
       <use style="stroke:#000000;stroke-width:0.8;" x="379.283648" xlink:href="#mf76643bf40" y="298.6855"/>
      </g>
     </g>
     <g id="text_19">
      <!-- $\mathdefault{10^{1}}$ -->
      <g transform="translate(370.483648 313.283937)scale(0.1 -0.1)">
       <use transform="translate(0 0.684375)" xlink:href="#DejaVuSans-31"/>
       <use transform="translate(63.623047 0.684375)" xlink:href="#DejaVuSans-30"/>
       <use transform="translate(128.203125 38.965625)scale(0.7)" xlink:href="#DejaVuSans-31"/>
      </g>
     </g>
    </g>
    <g id="xtick_78">
     <g id="line2d_37">
      <g>
       <use style="stroke:#000000;stroke-width:0.8;" x="429.799464" xlink:href="#mf76643bf40" y="298.6855"/>
      </g>
     </g>
     <g id="text_20">
      <!-- $\mathdefault{10^{2}}$ -->
      <g transform="translate(420.999464 313.283937)scale(0.1 -0.1)">
       <use transform="translate(0 0.765625)" xlink:href="#DejaVuSans-31"/>
       <use transform="translate(63.623047 0.765625)" xlink:href="#DejaVuSans-30"/>
       <use transform="translate(128.203125 39.046875)scale(0.7)" xlink:href="#DejaVuSans-32"/>
      </g>
     </g>
    </g>
    <g id="xtick_79">
     <g id="line2d_38">
      <defs>
       <path d="M 0 0 
L 0 2 
" id="m62c1978580" style="stroke:#000000;stroke-width:0.6;"/>
      </defs>
      <g>
       <use style="stroke:#000000;stroke-width:0.6;" x="60.981972" xlink:href="#m62c1978580" y="298.6855"/>
      </g>
     </g>
    </g>
    <g id="xtick_80">
     <g id="line2d_39">
      <g>
       <use style="stroke:#000000;stroke-width:0.6;" x="64.981877" xlink:href="#m62c1978580" y="298.6855"/>
      </g>
     </g>
    </g>
    <g id="xtick_81">
     <g id="line2d_40">
      <g>
       <use style="stroke:#000000;stroke-width:0.6;" x="68.363749" xlink:href="#m62c1978580" y="298.6855"/>
      </g>
     </g>
    </g>
    <g id="xtick_82">
     <g id="line2d_41">
      <g>
       <use style="stroke:#000000;stroke-width:0.6;" x="71.293259" xlink:href="#m62c1978580" y="298.6855"/>
      </g>
     </g>
    </g>
    <g id="xtick_83">
     <g id="line2d_42">
      <g>
       <use style="stroke:#000000;stroke-width:0.6;" x="73.877271" xlink:href="#m62c1978580" y="298.6855"/>
      </g>
     </g>
    </g>
    <g id="xtick_84">
     <g id="line2d_43">
      <g>
       <use style="stroke:#000000;stroke-width:0.6;" x="91.395524" xlink:href="#m62c1978580" y="298.6855"/>
      </g>
     </g>
    </g>
    <g id="xtick_85">
     <g id="line2d_44">
      <g>
       <use style="stroke:#000000;stroke-width:0.6;" x="100.290918" xlink:href="#m62c1978580" y="298.6855"/>
      </g>
     </g>
    </g>
    <g id="xtick_86">
     <g id="line2d_45">
      <g>
       <use style="stroke:#000000;stroke-width:0.6;" x="106.6023" xlink:href="#m62c1978580" y="298.6855"/>
      </g>
     </g>
    </g>
    <g id="xtick_87">
     <g id="line2d_46">
      <g>
       <use style="stroke:#000000;stroke-width:0.6;" x="111.497788" xlink:href="#m62c1978580" y="298.6855"/>
      </g>
     </g>
    </g>
    <g id="xtick_88">
     <g id="line2d_47">
      <g>
       <use style="stroke:#000000;stroke-width:0.6;" x="115.497694" xlink:href="#m62c1978580" y="298.6855"/>
      </g>
     </g>
    </g>
    <g id="xtick_89">
     <g id="line2d_48">
      <g>
       <use style="stroke:#000000;stroke-width:0.6;" x="118.879566" xlink:href="#m62c1978580" y="298.6855"/>
      </g>
     </g>
    </g>
    <g id="xtick_90">
     <g id="line2d_49">
      <g>
       <use style="stroke:#000000;stroke-width:0.6;" x="121.809076" xlink:href="#m62c1978580" y="298.6855"/>
      </g>
     </g>
    </g>
    <g id="xtick_91">
     <g id="line2d_50">
      <g>
       <use style="stroke:#000000;stroke-width:0.6;" x="124.393088" xlink:href="#m62c1978580" y="298.6855"/>
      </g>
     </g>
    </g>
    <g id="xtick_92">
     <g id="line2d_51">
      <g>
       <use style="stroke:#000000;stroke-width:0.6;" x="141.911341" xlink:href="#m62c1978580" y="298.6855"/>
      </g>
     </g>
    </g>
    <g id="xtick_93">
     <g id="line2d_52">
      <g>
       <use style="stroke:#000000;stroke-width:0.6;" x="150.806734" xlink:href="#m62c1978580" y="298.6855"/>
      </g>
     </g>
    </g>
    <g id="xtick_94">
     <g id="line2d_53">
      <g>
       <use style="stroke:#000000;stroke-width:0.6;" x="157.118117" xlink:href="#m62c1978580" y="298.6855"/>
      </g>
     </g>
    </g>
    <g id="xtick_95">
     <g id="line2d_54">
      <g>
       <use style="stroke:#000000;stroke-width:0.6;" x="162.013605" xlink:href="#m62c1978580" y="298.6855"/>
      </g>
     </g>
    </g>
    <g id="xtick_96">
     <g id="line2d_55">
      <g>
       <use style="stroke:#000000;stroke-width:0.6;" x="166.01351" xlink:href="#m62c1978580" y="298.6855"/>
      </g>
     </g>
    </g>
    <g id="xtick_97">
     <g id="line2d_56">
      <g>
       <use style="stroke:#000000;stroke-width:0.6;" x="169.395382" xlink:href="#m62c1978580" y="298.6855"/>
      </g>
     </g>
    </g>
    <g id="xtick_98">
     <g id="line2d_57">
      <g>
       <use style="stroke:#000000;stroke-width:0.6;" x="172.324893" xlink:href="#m62c1978580" y="298.6855"/>
      </g>
     </g>
    </g>
    <g id="xtick_99">
     <g id="line2d_58">
      <g>
       <use style="stroke:#000000;stroke-width:0.6;" x="174.908904" xlink:href="#m62c1978580" y="298.6855"/>
      </g>
     </g>
    </g>
    <g id="xtick_100">
     <g id="line2d_59">
      <g>
       <use style="stroke:#000000;stroke-width:0.6;" x="192.427157" xlink:href="#m62c1978580" y="298.6855"/>
      </g>
     </g>
    </g>
    <g id="xtick_101">
     <g id="line2d_60">
      <g>
       <use style="stroke:#000000;stroke-width:0.6;" x="201.322551" xlink:href="#m62c1978580" y="298.6855"/>
      </g>
     </g>
    </g>
    <g id="xtick_102">
     <g id="line2d_61">
      <g>
       <use style="stroke:#000000;stroke-width:0.6;" x="207.633933" xlink:href="#m62c1978580" y="298.6855"/>
      </g>
     </g>
    </g>
    <g id="xtick_103">
     <g id="line2d_62">
      <g>
       <use style="stroke:#000000;stroke-width:0.6;" x="212.529422" xlink:href="#m62c1978580" y="298.6855"/>
      </g>
     </g>
    </g>
    <g id="xtick_104">
     <g id="line2d_63">
      <g>
       <use style="stroke:#000000;stroke-width:0.6;" x="216.529327" xlink:href="#m62c1978580" y="298.6855"/>
      </g>
     </g>
    </g>
    <g id="xtick_105">
     <g id="line2d_64">
      <g>
       <use style="stroke:#000000;stroke-width:0.6;" x="219.911199" xlink:href="#m62c1978580" y="298.6855"/>
      </g>
     </g>
    </g>
    <g id="xtick_106">
     <g id="line2d_65">
      <g>
       <use style="stroke:#000000;stroke-width:0.6;" x="222.840709" xlink:href="#m62c1978580" y="298.6855"/>
      </g>
     </g>
    </g>
    <g id="xtick_107">
     <g id="line2d_66">
      <g>
       <use style="stroke:#000000;stroke-width:0.6;" x="225.424721" xlink:href="#m62c1978580" y="298.6855"/>
      </g>
     </g>
    </g>
    <g id="xtick_108">
     <g id="line2d_67">
      <g>
       <use style="stroke:#000000;stroke-width:0.6;" x="242.942974" xlink:href="#m62c1978580" y="298.6855"/>
      </g>
     </g>
    </g>
    <g id="xtick_109">
     <g id="line2d_68">
      <g>
       <use style="stroke:#000000;stroke-width:0.6;" x="251.838368" xlink:href="#m62c1978580" y="298.6855"/>
      </g>
     </g>
    </g>
    <g id="xtick_110">
     <g id="line2d_69">
      <g>
       <use style="stroke:#000000;stroke-width:0.6;" x="258.14975" xlink:href="#m62c1978580" y="298.6855"/>
      </g>
     </g>
    </g>
    <g id="xtick_111">
     <g id="line2d_70">
      <g>
       <use style="stroke:#000000;stroke-width:0.6;" x="263.045238" xlink:href="#m62c1978580" y="298.6855"/>
      </g>
     </g>
    </g>
    <g id="xtick_112">
     <g id="line2d_71">
      <g>
       <use style="stroke:#000000;stroke-width:0.6;" x="267.045144" xlink:href="#m62c1978580" y="298.6855"/>
      </g>
     </g>
    </g>
    <g id="xtick_113">
     <g id="line2d_72">
      <g>
       <use style="stroke:#000000;stroke-width:0.6;" x="270.427015" xlink:href="#m62c1978580" y="298.6855"/>
      </g>
     </g>
    </g>
    <g id="xtick_114">
     <g id="line2d_73">
      <g>
       <use style="stroke:#000000;stroke-width:0.6;" x="273.356526" xlink:href="#m62c1978580" y="298.6855"/>
      </g>
     </g>
    </g>
    <g id="xtick_115">
     <g id="line2d_74">
      <g>
       <use style="stroke:#000000;stroke-width:0.6;" x="275.940537" xlink:href="#m62c1978580" y="298.6855"/>
      </g>
     </g>
    </g>
    <g id="xtick_116">
     <g id="line2d_75">
      <g>
       <use style="stroke:#000000;stroke-width:0.6;" x="293.45879" xlink:href="#m62c1978580" y="298.6855"/>
      </g>
     </g>
    </g>
    <g id="xtick_117">
     <g id="line2d_76">
      <g>
       <use style="stroke:#000000;stroke-width:0.6;" x="302.354184" xlink:href="#m62c1978580" y="298.6855"/>
      </g>
     </g>
    </g>
    <g id="xtick_118">
     <g id="line2d_77">
      <g>
       <use style="stroke:#000000;stroke-width:0.6;" x="308.665566" xlink:href="#m62c1978580" y="298.6855"/>
      </g>
     </g>
    </g>
    <g id="xtick_119">
     <g id="line2d_78">
      <g>
       <use style="stroke:#000000;stroke-width:0.6;" x="313.561055" xlink:href="#m62c1978580" y="298.6855"/>
      </g>
     </g>
    </g>
    <g id="xtick_120">
     <g id="line2d_79">
      <g>
       <use style="stroke:#000000;stroke-width:0.6;" x="317.56096" xlink:href="#m62c1978580" y="298.6855"/>
      </g>
     </g>
    </g>
    <g id="xtick_121">
     <g id="line2d_80">
      <g>
       <use style="stroke:#000000;stroke-width:0.6;" x="320.942832" xlink:href="#m62c1978580" y="298.6855"/>
      </g>
     </g>
    </g>
    <g id="xtick_122">
     <g id="line2d_81">
      <g>
       <use style="stroke:#000000;stroke-width:0.6;" x="323.872343" xlink:href="#m62c1978580" y="298.6855"/>
      </g>
     </g>
    </g>
    <g id="xtick_123">
     <g id="line2d_82">
      <g>
       <use style="stroke:#000000;stroke-width:0.6;" x="326.456354" xlink:href="#m62c1978580" y="298.6855"/>
      </g>
     </g>
    </g>
    <g id="xtick_124">
     <g id="line2d_83">
      <g>
       <use style="stroke:#000000;stroke-width:0.6;" x="343.974607" xlink:href="#m62c1978580" y="298.6855"/>
      </g>
     </g>
    </g>
    <g id="xtick_125">
     <g id="line2d_84">
      <g>
       <use style="stroke:#000000;stroke-width:0.6;" x="352.870001" xlink:href="#m62c1978580" y="298.6855"/>
      </g>
     </g>
    </g>
    <g id="xtick_126">
     <g id="line2d_85">
      <g>
       <use style="stroke:#000000;stroke-width:0.6;" x="359.181383" xlink:href="#m62c1978580" y="298.6855"/>
      </g>
     </g>
    </g>
    <g id="xtick_127">
     <g id="line2d_86">
      <g>
       <use style="stroke:#000000;stroke-width:0.6;" x="364.076872" xlink:href="#m62c1978580" y="298.6855"/>
      </g>
     </g>
    </g>
    <g id="xtick_128">
     <g id="line2d_87">
      <g>
       <use style="stroke:#000000;stroke-width:0.6;" x="368.076777" xlink:href="#m62c1978580" y="298.6855"/>
      </g>
     </g>
    </g>
    <g id="xtick_129">
     <g id="line2d_88">
      <g>
       <use style="stroke:#000000;stroke-width:0.6;" x="371.458649" xlink:href="#m62c1978580" y="298.6855"/>
      </g>
     </g>
    </g>
    <g id="xtick_130">
     <g id="line2d_89">
      <g>
       <use style="stroke:#000000;stroke-width:0.6;" x="374.388159" xlink:href="#m62c1978580" y="298.6855"/>
      </g>
     </g>
    </g>
    <g id="xtick_131">
     <g id="line2d_90">
      <g>
       <use style="stroke:#000000;stroke-width:0.6;" x="376.972171" xlink:href="#m62c1978580" y="298.6855"/>
      </g>
     </g>
    </g>
    <g id="xtick_132">
     <g id="line2d_91">
      <g>
       <use style="stroke:#000000;stroke-width:0.6;" x="394.490424" xlink:href="#m62c1978580" y="298.6855"/>
      </g>
     </g>
    </g>
    <g id="xtick_133">
     <g id="line2d_92">
      <g>
       <use style="stroke:#000000;stroke-width:0.6;" x="403.385817" xlink:href="#m62c1978580" y="298.6855"/>
      </g>
     </g>
    </g>
    <g id="xtick_134">
     <g id="line2d_93">
      <g>
       <use style="stroke:#000000;stroke-width:0.6;" x="409.6972" xlink:href="#m62c1978580" y="298.6855"/>
      </g>
     </g>
    </g>
    <g id="xtick_135">
     <g id="line2d_94">
      <g>
       <use style="stroke:#000000;stroke-width:0.6;" x="414.592688" xlink:href="#m62c1978580" y="298.6855"/>
      </g>
     </g>
    </g>
    <g id="xtick_136">
     <g id="line2d_95">
      <g>
       <use style="stroke:#000000;stroke-width:0.6;" x="418.592593" xlink:href="#m62c1978580" y="298.6855"/>
      </g>
     </g>
    </g>
    <g id="xtick_137">
     <g id="line2d_96">
      <g>
       <use style="stroke:#000000;stroke-width:0.6;" x="421.974465" xlink:href="#m62c1978580" y="298.6855"/>
      </g>
     </g>
    </g>
    <g id="xtick_138">
     <g id="line2d_97">
      <g>
       <use style="stroke:#000000;stroke-width:0.6;" x="424.903976" xlink:href="#m62c1978580" y="298.6855"/>
      </g>
     </g>
    </g>
    <g id="xtick_139">
     <g id="line2d_98">
      <g>
       <use style="stroke:#000000;stroke-width:0.6;" x="427.487987" xlink:href="#m62c1978580" y="298.6855"/>
      </g>
     </g>
    </g>
    <g id="xtick_140">
     <g id="line2d_99">
      <g>
       <use style="stroke:#000000;stroke-width:0.6;" x="445.00624" xlink:href="#m62c1978580" y="298.6855"/>
      </g>
     </g>
    </g>
    <g id="text_21">
     <!-- $r$ [au] -->
     <defs>
      <path d="M 44.578125 46.390625 
Q 43.21875 47.125 41.453125 47.515625 
Q 39.703125 47.90625 37.703125 47.90625 
Q 30.515625 47.90625 25.140625 42.453125 
Q 19.78125 37.015625 18.015625 27.875 
L 12.5 0 
L 3.515625 0 
L 14.203125 54.6875 
L 23.1875 54.6875 
L 21.484375 46.1875 
Q 25.046875 50.921875 30 53.453125 
Q 34.96875 56 40.578125 56 
Q 42.046875 56 43.453125 55.828125 
Q 44.875 55.671875 46.296875 55.28125 
z
" id="DejaVuSans-Oblique-72"/>
      <path id="DejaVuSans-20"/>
      <path d="M 8.59375 75.984375 
L 29.296875 75.984375 
L 29.296875 69 
L 17.578125 69 
L 17.578125 -6.203125 
L 29.296875 -6.203125 
L 29.296875 -13.1875 
L 8.59375 -13.1875 
z
" id="DejaVuSans-5b"/>
      <path d="M 30.421875 75.984375 
L 30.421875 -13.1875 
L 9.71875 -13.1875 
L 9.71875 -6.203125 
L 21.390625 -6.203125 
L 21.390625 69 
L 9.71875 69 
L 9.71875 75.984375 
z
" id="DejaVuSans-5d"/>
     </defs>
     <g transform="translate(239.194106 326.962063)scale(0.1 -0.1)">
      <use transform="translate(0 0.015625)" xlink:href="#DejaVuSans-Oblique-72"/>
      <use transform="translate(41.113281 0.015625)" xlink:href="#DejaVuSans-20"/>
      <use transform="translate(72.900391 0.015625)" xlink:href="#DejaVuSans-5b"/>
      <use transform="translate(111.914062 0.015625)" xlink:href="#DejaVuSans-61"/>
      <use transform="translate(173.193359 0.015625)" xlink:href="#DejaVuSans-75"/>
      <use transform="translate(236.572266 0.015625)" xlink:href="#DejaVuSans-5d"/>
     </g>
    </g>
   </g>
   <g id="matplotlib.axis_4">
    <g id="ytick_23">
     <g id="line2d_100">
      <g>
       <use style="stroke:#000000;stroke-width:0.8;" x="58.508212" xlink:href="#m704da6cd1d" y="298.10121"/>
      </g>
     </g>
     <g id="text_22">
      <!-- $\mathdefault{-10^{2}}$ -->
      <g transform="translate(25.508212 301.900429)scale(0.1 -0.1)">
       <use transform="translate(0 0.765625)" xlink:href="#DejaVuSans-2212"/>
       <use transform="translate(83.789062 0.765625)" xlink:href="#DejaVuSans-31"/>
       <use transform="translate(147.412109 0.765625)" xlink:href="#DejaVuSans-30"/>
       <use transform="translate(211.992188 39.046875)scale(0.7)" xlink:href="#DejaVuSans-32"/>
      </g>
     </g>
    </g>
    <g id="ytick_24">
     <g id="line2d_101">
      <g>
       <use style="stroke:#000000;stroke-width:0.8;" x="58.508212" xlink:href="#m704da6cd1d" y="277.49424"/>
      </g>
     </g>
     <g id="text_23">
      <!-- $\mathdefault{-10^{1}}$ -->
      <g transform="translate(25.508212 281.293459)scale(0.1 -0.1)">
       <use transform="translate(0 0.684375)" xlink:href="#DejaVuSans-2212"/>
       <use transform="translate(83.789062 0.684375)" xlink:href="#DejaVuSans-31"/>
       <use transform="translate(147.412109 0.684375)" xlink:href="#DejaVuSans-30"/>
       <use transform="translate(211.992188 38.965625)scale(0.7)" xlink:href="#DejaVuSans-31"/>
      </g>
     </g>
    </g>
    <g id="ytick_25">
     <g id="line2d_102">
      <g>
       <use style="stroke:#000000;stroke-width:0.8;" x="58.508212" xlink:href="#m704da6cd1d" y="251.642269"/>
      </g>
     </g>
     <g id="text_24">
      <!-- $\mathdefault{-10^{0}}$ -->
      <g transform="translate(25.508212 255.441488)scale(0.1 -0.1)">
       <use transform="translate(0 0.765625)" xlink:href="#DejaVuSans-2212"/>
       <use transform="translate(83.789062 0.765625)" xlink:href="#DejaVuSans-31"/>
       <use transform="translate(147.412109 0.765625)" xlink:href="#DejaVuSans-30"/>
       <use transform="translate(211.992188 39.046875)scale(0.7)" xlink:href="#DejaVuSans-30"/>
      </g>
     </g>
    </g>
    <g id="ytick_26">
     <g id="line2d_103">
      <g>
       <use style="stroke:#000000;stroke-width:0.8;" x="58.508212" xlink:href="#m704da6cd1d" y="240.193952"/>
      </g>
     </g>
     <g id="text_25">
      <!-- $\mathdefault{0}$ -->
      <g transform="translate(45.108212 243.993171)scale(0.1 -0.1)">
       <use transform="translate(0 0.78125)" xlink:href="#DejaVuSans-30"/>
      </g>
     </g>
    </g>
    <g id="ytick_27">
     <g id="line2d_104">
      <g>
       <use style="stroke:#000000;stroke-width:0.8;" x="58.508212" xlink:href="#m704da6cd1d" y="228.745636"/>
      </g>
     </g>
     <g id="text_26">
      <!-- $\mathdefault{10^{0}}$ -->
      <g transform="translate(33.908212 232.544854)scale(0.1 -0.1)">
       <use transform="translate(0 0.765625)" xlink:href="#DejaVuSans-31"/>
       <use transform="translate(63.623047 0.765625)" xlink:href="#DejaVuSans-30"/>
       <use transform="translate(128.203125 39.046875)scale(0.7)" xlink:href="#DejaVuSans-30"/>
      </g>
     </g>
    </g>
    <g id="ytick_28">
     <g id="line2d_105">
      <g>
       <use style="stroke:#000000;stroke-width:0.8;" x="58.508212" xlink:href="#m704da6cd1d" y="202.893665"/>
      </g>
     </g>
     <g id="text_27">
      <!-- $\mathdefault{10^{1}}$ -->
      <g transform="translate(33.908212 206.692884)scale(0.1 -0.1)">
       <use transform="translate(0 0.684375)" xlink:href="#DejaVuSans-31"/>
       <use transform="translate(63.623047 0.684375)" xlink:href="#DejaVuSans-30"/>
       <use transform="translate(128.203125 38.965625)scale(0.7)" xlink:href="#DejaVuSans-31"/>
      </g>
     </g>
    </g>
    <g id="ytick_29">
     <g id="line2d_106">
      <g>
       <use style="stroke:#000000;stroke-width:0.8;" x="58.508212" xlink:href="#m704da6cd1d" y="182.286695"/>
      </g>
     </g>
     <g id="text_28">
      <!-- $\mathdefault{10^{2}}$ -->
      <g transform="translate(33.908212 186.085913)scale(0.1 -0.1)">
       <use transform="translate(0 0.765625)" xlink:href="#DejaVuSans-31"/>
       <use transform="translate(63.623047 0.765625)" xlink:href="#DejaVuSans-30"/>
       <use transform="translate(128.203125 39.046875)scale(0.7)" xlink:href="#DejaVuSans-32"/>
      </g>
     </g>
    </g>
    <g id="ytick_30">
     <g id="line2d_107">
      <g>
       <use style="stroke:#000000;stroke-width:0.6;" x="58.508212" xlink:href="#ma02508236c" y="298.10121"/>
      </g>
     </g>
    </g>
    <g id="ytick_31">
     <g id="line2d_108">
      <g>
       <use style="stroke:#000000;stroke-width:0.6;" x="58.508212" xlink:href="#ma02508236c" y="277.49424"/>
      </g>
     </g>
    </g>
    <g id="ytick_32">
     <g id="line2d_109">
      <g>
       <use style="stroke:#000000;stroke-width:0.6;" x="58.508212" xlink:href="#ma02508236c" y="251.642269"/>
      </g>
     </g>
    </g>
    <g id="ytick_33">
     <g id="line2d_110">
      <g>
       <use style="stroke:#000000;stroke-width:0.6;" x="58.508212" xlink:href="#ma02508236c" y="240.193952"/>
      </g>
     </g>
    </g>
    <g id="ytick_34">
     <g id="line2d_111">
      <g>
       <use style="stroke:#000000;stroke-width:0.6;" x="58.508212" xlink:href="#ma02508236c" y="228.745636"/>
      </g>
     </g>
    </g>
    <g id="ytick_35">
     <g id="line2d_112">
      <g>
       <use style="stroke:#000000;stroke-width:0.6;" x="58.508212" xlink:href="#ma02508236c" y="202.893665"/>
      </g>
     </g>
    </g>
    <g id="ytick_36">
     <g id="line2d_113">
      <g>
       <use style="stroke:#000000;stroke-width:0.6;" x="58.508212" xlink:href="#ma02508236c" y="182.286695"/>
      </g>
     </g>
    </g>
    <g id="text_29">
     <!-- Deviation from Coulomb -->
     <defs>
      <path d="M 19.671875 64.796875 
L 19.671875 8.109375 
L 31.59375 8.109375 
Q 46.6875 8.109375 53.6875 14.9375 
Q 60.6875 21.78125 60.6875 36.53125 
Q 60.6875 51.171875 53.6875 57.984375 
Q 46.6875 64.796875 31.59375 64.796875 
z
M 9.8125 72.90625 
L 30.078125 72.90625 
Q 51.265625 72.90625 61.171875 64.09375 
Q 71.09375 55.28125 71.09375 36.53125 
Q 71.09375 17.671875 61.125 8.828125 
Q 51.171875 0 30.078125 0 
L 9.8125 0 
z
" id="DejaVuSans-44"/>
      <path d="M 2.984375 54.6875 
L 12.5 54.6875 
L 29.59375 8.796875 
L 46.6875 54.6875 
L 56.203125 54.6875 
L 35.6875 0 
L 23.484375 0 
z
" id="DejaVuSans-76"/>
      <path d="M 37.109375 75.984375 
L 37.109375 68.5 
L 28.515625 68.5 
Q 23.6875 68.5 21.796875 66.546875 
Q 19.921875 64.59375 19.921875 59.515625 
L 19.921875 54.6875 
L 34.71875 54.6875 
L 34.71875 47.703125 
L 19.921875 47.703125 
L 19.921875 0 
L 10.890625 0 
L 10.890625 47.703125 
L 2.296875 47.703125 
L 2.296875 54.6875 
L 10.890625 54.6875 
L 10.890625 58.5 
Q 10.890625 67.625 15.140625 71.796875 
Q 19.390625 75.984375 28.609375 75.984375 
z
" id="DejaVuSans-66"/>
      <path d="M 41.109375 46.296875 
Q 39.59375 47.171875 37.8125 47.578125 
Q 36.03125 48 33.890625 48 
Q 26.265625 48 22.1875 43.046875 
Q 18.109375 38.09375 18.109375 28.8125 
L 18.109375 0 
L 9.078125 0 
L 9.078125 54.6875 
L 18.109375 54.6875 
L 18.109375 46.1875 
Q 20.953125 51.171875 25.484375 53.578125 
Q 30.03125 56 36.53125 56 
Q 37.453125 56 38.578125 55.875 
Q 39.703125 55.765625 41.0625 55.515625 
z
" id="DejaVuSans-72"/>
      <path d="M 52 44.1875 
Q 55.375 50.25 60.0625 53.125 
Q 64.75 56 71.09375 56 
Q 79.640625 56 84.28125 50.015625 
Q 88.921875 44.046875 88.921875 33.015625 
L 88.921875 0 
L 79.890625 0 
L 79.890625 32.71875 
Q 79.890625 40.578125 77.09375 44.375 
Q 74.3125 48.1875 68.609375 48.1875 
Q 61.625 48.1875 57.5625 43.546875 
Q 53.515625 38.921875 53.515625 30.90625 
L 53.515625 0 
L 44.484375 0 
L 44.484375 32.71875 
Q 44.484375 40.625 41.703125 44.40625 
Q 38.921875 48.1875 33.109375 48.1875 
Q 26.21875 48.1875 22.15625 43.53125 
Q 18.109375 38.875 18.109375 30.90625 
L 18.109375 0 
L 9.078125 0 
L 9.078125 54.6875 
L 18.109375 54.6875 
L 18.109375 46.1875 
Q 21.1875 51.21875 25.484375 53.609375 
Q 29.78125 56 35.6875 56 
Q 41.65625 56 45.828125 52.96875 
Q 50 49.953125 52 44.1875 
z
" id="DejaVuSans-6d"/>
      <path d="M 64.40625 67.28125 
L 64.40625 56.890625 
Q 59.421875 61.53125 53.78125 63.8125 
Q 48.140625 66.109375 41.796875 66.109375 
Q 29.296875 66.109375 22.65625 58.46875 
Q 16.015625 50.828125 16.015625 36.375 
Q 16.015625 21.96875 22.65625 14.328125 
Q 29.296875 6.6875 41.796875 6.6875 
Q 48.140625 6.6875 53.78125 8.984375 
Q 59.421875 11.28125 64.40625 15.921875 
L 64.40625 5.609375 
Q 59.234375 2.09375 53.4375 0.328125 
Q 47.65625 -1.421875 41.21875 -1.421875 
Q 24.65625 -1.421875 15.125 8.703125 
Q 5.609375 18.84375 5.609375 36.375 
Q 5.609375 53.953125 15.125 64.078125 
Q 24.65625 74.21875 41.21875 74.21875 
Q 47.75 74.21875 53.53125 72.484375 
Q 59.328125 70.75 64.40625 67.28125 
z
" id="DejaVuSans-43"/>
      <path d="M 48.6875 27.296875 
Q 48.6875 37.203125 44.609375 42.84375 
Q 40.53125 48.484375 33.40625 48.484375 
Q 26.265625 48.484375 22.1875 42.84375 
Q 18.109375 37.203125 18.109375 27.296875 
Q 18.109375 17.390625 22.1875 11.75 
Q 26.265625 6.109375 33.40625 6.109375 
Q 40.53125 6.109375 44.609375 11.75 
Q 48.6875 17.390625 48.6875 27.296875 
z
M 18.109375 46.390625 
Q 20.953125 51.265625 25.265625 53.625 
Q 29.59375 56 35.59375 56 
Q 45.5625 56 51.78125 48.09375 
Q 58.015625 40.1875 58.015625 27.296875 
Q 58.015625 14.40625 51.78125 6.484375 
Q 45.5625 -1.421875 35.59375 -1.421875 
Q 29.59375 -1.421875 25.265625 0.953125 
Q 20.953125 3.328125 18.109375 8.203125 
L 18.109375 0 
L 9.078125 0 
L 9.078125 75.984375 
L 18.109375 75.984375 
z
" id="DejaVuSans-62"/>
     </defs>
     <g transform="translate(19.428525 292.354906)rotate(-90)scale(0.1 -0.1)">
      <use xlink:href="#DejaVuSans-44"/>
      <use x="77.001953" xlink:href="#DejaVuSans-65"/>
      <use x="138.525391" xlink:href="#DejaVuSans-76"/>
      <use x="197.705078" xlink:href="#DejaVuSans-69"/>
      <use x="225.488281" xlink:href="#DejaVuSans-61"/>
      <use x="286.767578" xlink:href="#DejaVuSans-74"/>
      <use x="325.976562" xlink:href="#DejaVuSans-69"/>
      <use x="353.759766" xlink:href="#DejaVuSans-6f"/>
      <use x="414.941406" xlink:href="#DejaVuSans-6e"/>
      <use x="478.320312" xlink:href="#DejaVuSans-20"/>
      <use x="510.107422" xlink:href="#DejaVuSans-66"/>
      <use x="545.3125" xlink:href="#DejaVuSans-72"/>
      <use x="586.394531" xlink:href="#DejaVuSans-6f"/>
      <use x="647.576172" xlink:href="#DejaVuSans-6d"/>
      <use x="744.988281" xlink:href="#DejaVuSans-20"/>
      <use x="776.775391" xlink:href="#DejaVuSans-43"/>
      <use x="846.599609" xlink:href="#DejaVuSans-6f"/>
      <use x="907.78125" xlink:href="#DejaVuSans-75"/>
      <use x="971.160156" xlink:href="#DejaVuSans-6c"/>
      <use x="998.943359" xlink:href="#DejaVuSans-6f"/>
      <use x="1060.125" xlink:href="#DejaVuSans-6d"/>
      <use x="1157.537109" xlink:href="#DejaVuSans-62"/>
     </g>
    </g>
   </g>
   <g id="line2d_114">
    <path clip-path="url(#pa20d5679e8)" d="M 76.188748 170.04833 
L 248.14867 170.159276 
L 260.73973 170.397073 
L 268.520722 170.754507 
L 274.250361 171.232912 
L 278.777484 171.827058 
L 282.597244 172.549363 
L 285.851113 173.384851 
L 288.751301 174.353457 
L 291.368544 175.456376 
L 293.773578 176.705155 
L 296.037139 178.128536 
L 298.159228 179.722186 
L 300.21058 181.542485 
L 302.191196 183.603161 
L 304.101076 185.91479 
L 306.010956 188.589319 
L 307.850099 191.550087 
L 309.689243 194.92869 
L 311.599123 198.917104 
L 313.509003 203.426831 
L 315.489619 208.686805 
L 317.470235 214.589163 
L 318.31907 217.397628 
L 319.167906 223.695449 
L 320.016741 228.466155 
L 320.865577 232.022274 
L 321.714412 234.625832 
L 322.563248 236.493545 
L 323.412083 237.80254 
L 324.260919 238.695851 
L 325.180491 239.325905 
L 326.170799 239.735399 
L 327.444052 240.008788 
L 329.283195 240.152928 
L 333.527373 240.193543 
L 429.799464 240.193952 
L 429.799464 240.193952 
" style="fill:none;stroke:#1f77b4;stroke-linecap:square;stroke-width:1.5;"/>
   </g>
   <g id="line2d_115">
    <path clip-path="url(#pa20d5679e8)" d="M 76.188748 239.912805 
L 229.686498 239.802091 
L 242.277558 239.565136 
L 250.05855 239.209889 
L 255.78819 238.736251 
L 260.386048 238.140106 
L 264.276544 237.414312 
L 267.671886 236.555051 
L 270.713547 235.555599 
L 273.472262 234.419185 
L 276.089505 233.103509 
L 278.636011 231.572862 
L 281.182518 229.775702 
L 283.799761 227.647636 
L 286.699948 224.990573 
L 291.934434 219.801017 
L 294.551677 217.403603 
L 294.905358 217.225223 
L 297.168919 216.633006 
L 299.220272 216.328053 
L 301.059415 216.276632 
L 302.757086 216.445444 
L 304.384021 216.829797 
L 305.657274 217.306376 
L 306.930528 218.876689 
L 308.486726 221.180086 
L 310.538078 224.657154 
L 314.782256 231.945622 
L 316.479927 234.364688 
L 317.965389 236.103781 
L 319.380115 237.414188 
L 320.724104 238.36106 
L 322.13883 239.080048 
L 323.624292 239.582302 
L 325.321963 239.918871 
L 327.514788 240.115299 
L 331.263812 240.189592 
L 360.690108 240.193952 
L 429.799464 240.193952 
L 429.799464 240.193952 
" style="fill:none;stroke:#ff7f0e;stroke-linecap:square;stroke-width:1.5;"/>
   </g>
   <g id="line2d_116">
    <path clip-path="url(#pa20d5679e8)" d="M 76.188748 174.218641 
L 251.473276 174.329455 
L 264.064336 174.567709 
L 271.774591 174.923158 
L 277.433494 175.397765 
L 281.889881 175.986794 
L 285.568168 176.68794 
L 288.751301 177.514032 
L 291.580753 178.475643 
L 294.127259 179.576022 
L 296.461557 180.829059 
L 298.583645 182.215806 
L 300.634998 183.825251 
L 302.544878 185.604252 
L 304.384021 187.615363 
L 306.223165 189.963235 
L 307.991572 192.582453 
L 309.759979 195.600841 
L 311.528386 199.062648 
L 313.296794 203.010289 
L 315.135937 207.673095 
L 316.975081 212.944502 
L 318.31907 217.207201 
L 319.026433 222.489046 
L 319.875269 227.549392 
L 320.724104 231.328807 
L 321.57294 234.101229 
L 322.421775 236.096666 
L 323.270611 237.503717 
L 324.119446 238.473761 
L 325.039018 239.168979 
L 326.029326 239.632002 
L 327.231843 239.941041 
L 328.929514 240.123327 
L 332.112647 240.190339 
L 362.741461 240.193952 
L 429.799464 240.193952 
L 429.799464 240.193952 
" style="fill:none;stroke:#2ca02c;stroke-linecap:square;stroke-width:1.5;"/>
   </g>
   <g id="line2d_117">
    <path clip-path="url(#pa20d5679e8)" d="M 76.188748 243.158173 
L 239.165161 243.047087 
L 251.826957 242.808862 
L 259.749422 242.448458 
L 265.620534 241.968125 
L 270.430602 241.35751 
L 274.604043 240.606088 
L 278.353066 239.709752 
L 281.960617 238.622108 
L 285.780377 237.233254 
L 296.603029 233.105323 
L 298.583645 232.710037 
L 300.352053 232.579836 
L 301.978987 232.680514 
L 303.605922 233.010708 
L 305.232857 233.569701 
L 307.072 234.446414 
L 309.477034 235.863273 
L 313.791948 238.430921 
L 315.772564 239.313888 
L 317.611707 239.888175 
L 319.592324 240.264379 
L 321.997357 240.479015 
L 325.675645 240.553686 
L 333.456637 240.441866 
L 350.150401 240.202516 
L 386.0137 240.193952 
L 429.799464 240.193952 
L 429.799464 240.193952 
" style="fill:none;stroke:#d62728;stroke-linecap:square;stroke-width:1.5;"/>
   </g>
   <g id="line2d_118">
    <path clip-path="url(#pa20d5679e8)" d="M 76.188748 181.350178 
L 252.392848 181.46116 
L 264.983907 181.69966 
L 272.694163 182.055187 
L 278.353066 182.529345 
L 282.809453 183.116914 
L 286.558476 183.830789 
L 289.741609 184.656498 
L 292.571061 185.61483 
L 295.117567 186.707531 
L 297.451865 187.946439 
L 299.64469 189.360313 
L 301.696042 190.942805 
L 303.676658 192.748044 
L 305.586538 194.783664 
L 307.496418 197.144373 
L 309.406298 199.86299 
L 311.316178 202.966538 
L 313.296794 206.610344 
L 315.418882 211.002189 
L 317.611707 216.065266 
L 318.177598 217.702756 
L 319.167906 223.220432 
L 320.158214 227.53219 
L 321.148522 230.852176 
L 322.068094 233.211578 
L 322.987666 235.007878 
L 323.907237 236.352395 
L 324.897545 237.4034 
L 325.887853 238.13947 
L 327.019634 238.699611 
L 328.363624 239.102467 
L 330.132031 239.384087 
L 333.244428 239.616502 
L 343.006036 240.047834 
L 350.9285 240.181319 
L 373.776322 240.193952 
L 429.799464 240.193952 
L 429.799464 240.193952 
" style="fill:none;stroke:#9467bd;stroke-linecap:square;stroke-width:1.5;"/>
   </g>
   <g id="line2d_119">
    <path clip-path="url(#pa20d5679e8)" d="M 76.188748 236.137642 
L 254.090519 236.24841 
L 267.03526 236.487463 
L 275.452878 236.854786 
L 282.243562 237.370071 
L 288.680565 238.084786 
L 304.101076 239.936559 
L 308.698935 240.137137 
L 315.8433 240.184535 
L 429.799464 240.193952 
L 429.799464 240.193952 
" style="fill:none;stroke:#8c564b;stroke-linecap:square;stroke-width:1.5;"/>
   </g>
   <g id="line2d_120">
    <path clip-path="url(#pa20d5679e8)" d="M 76.188748 292.55992 
L 247.370571 292.449343 
L 259.961631 292.211482 
L 267.671886 291.856323 
L 273.33079 291.381544 
L 277.787176 290.791398 
L 281.465463 290.087599 
L 284.648596 289.256499 
L 287.407311 288.313848 
L 289.883082 287.24168 
L 292.146643 286.027162 
L 294.268732 284.639348 
L 296.249348 283.081513 
L 298.159228 281.293233 
L 299.998371 279.258354 
L 301.766778 276.964209 
L 303.464449 274.403312 
L 305.16212 271.443636 
L 306.859791 268.039676 
L 308.628199 263.983193 
L 309.052616 262.683569 
L 310.113661 256.706231 
L 311.103969 252.350245 
L 312.02354 249.220214 
L 312.943112 246.8323 
L 313.862684 245.05172 
L 314.782256 243.751388 
L 315.701828 242.817527 
L 316.692136 242.11112 
L 317.894653 241.537098 
L 319.380115 241.089142 
L 321.431467 240.715899 
L 324.402391 240.412205 
L 328.363624 240.240073 
L 335.720198 240.194299 
L 429.799464 240.193952 
L 429.799464 240.193952 
" style="fill:none;stroke:#e377c2;stroke-linecap:square;stroke-width:1.5;"/>
   </g>
   <g id="patch_8">
    <path d="M 58.508212 298.6855 
L 58.508212 163.92275 
" style="fill:none;stroke:#000000;stroke-linecap:square;stroke-linejoin:miter;stroke-width:0.8;"/>
   </g>
   <g id="patch_9">
    <path d="M 447.48 298.6855 
L 447.48 163.92275 
" style="fill:none;stroke:#000000;stroke-linecap:square;stroke-linejoin:miter;stroke-width:0.8;"/>
   </g>
   <g id="patch_10">
    <path d="M 58.508212 298.6855 
L 447.48 298.6855 
" style="fill:none;stroke:#000000;stroke-linecap:square;stroke-linejoin:miter;stroke-width:0.8;"/>
   </g>
   <g id="patch_11">
    <path d="M 58.508212 163.92275 
L 447.48 163.92275 
" style="fill:none;stroke:#000000;stroke-linecap:square;stroke-linejoin:miter;stroke-width:0.8;"/>
   </g>
   <g id="legend_1">
    <g id="patch_12">
     <path d="M 390.490938 274.669625 
L 440.48 274.669625 
Q 442.48 274.669625 442.48 272.669625 
L 442.48 170.92275 
Q 442.48 168.92275 440.48 168.92275 
L 390.490938 168.92275 
Q 388.490938 168.92275 388.490938 170.92275 
L 388.490938 272.669625 
Q 388.490938 274.669625 390.490938 274.669625 
z
" style="fill:#ffffff;opacity:0.8;stroke:#cccccc;stroke-linejoin:miter;"/>
    </g>
    <g id="line2d_121">
     <path d="M 392.490938 177.021187 
L 412.490938 177.021187 
" style="fill:none;stroke:#1f77b4;stroke-linecap:square;stroke-width:1.5;"/>
    </g>
    <g id="line2d_122"/>
    <g id="text_30">
     <!-- 5s -->
     <g transform="translate(420.490938 180.521187)scale(0.1 -0.1)">
      <use xlink:href="#DejaVuSans-35"/>
      <use x="63.623047" xlink:href="#DejaVuSans-73"/>
     </g>
    </g>
    <g id="line2d_123">
     <path d="M 392.490938 191.699313 
L 412.490938 191.699313 
" style="fill:none;stroke:#ff7f0e;stroke-linecap:square;stroke-width:1.5;"/>
    </g>
    <g id="line2d_124"/>
    <g id="text_31">
     <!-- 5p -->
     <defs>
      <path d="M 6.6875 52.484375 
L 46.09375 52.484375 
L 46.09375 47.859375 
L 6.6875 47.859375 
z
" id="DejaVuSans-207b"/>
     </defs>
     <g transform="translate(420.490938 195.199313)scale(0.1 -0.1)">
      <use xlink:href="#DejaVuSans-35"/>
      <use x="63.623047" xlink:href="#DejaVuSans-70"/>
      <use x="127.099609" xlink:href="#DejaVuSans-207b"/>
     </g>
    </g>
    <g id="line2d_125">
     <path d="M 392.490938 206.377437 
L 412.490938 206.377437 
" style="fill:none;stroke:#2ca02c;stroke-linecap:square;stroke-width:1.5;"/>
    </g>
    <g id="line2d_126"/>
    <g id="text_32">
     <!-- 5p -->
     <g transform="translate(420.490938 209.877437)scale(0.1 -0.1)">
      <use xlink:href="#DejaVuSans-35"/>
      <use x="63.623047" xlink:href="#DejaVuSans-70"/>
     </g>
    </g>
    <g id="line2d_127">
     <path d="M 392.490938 221.055563 
L 412.490938 221.055563 
" style="fill:none;stroke:#d62728;stroke-linecap:square;stroke-width:1.5;"/>
    </g>
    <g id="line2d_128"/>
    <g id="text_33">
     <!-- 5d -->
     <g transform="translate(420.490938 224.555563)scale(0.1 -0.1)">
      <use xlink:href="#DejaVuSans-35"/>
      <use x="63.623047" xlink:href="#DejaVuSans-64"/>
      <use x="127.099609" xlink:href="#DejaVuSans-207b"/>
     </g>
    </g>
    <g id="line2d_129">
     <path d="M 392.490938 235.733688 
L 412.490938 235.733688 
" style="fill:none;stroke:#9467bd;stroke-linecap:square;stroke-width:1.5;"/>
    </g>
    <g id="line2d_130"/>
    <g id="text_34">
     <!-- 5d -->
     <g transform="translate(420.490938 239.233688)scale(0.1 -0.1)">
      <use xlink:href="#DejaVuSans-35"/>
      <use x="63.623047" xlink:href="#DejaVuSans-64"/>
     </g>
    </g>
    <g id="line2d_131">
     <path d="M 392.490938 250.411812 
L 412.490938 250.411812 
" style="fill:none;stroke:#8c564b;stroke-linecap:square;stroke-width:1.5;"/>
    </g>
    <g id="line2d_132"/>
    <g id="text_35">
     <!-- 5f -->
     <g transform="translate(420.490938 253.911812)scale(0.1 -0.1)">
      <use xlink:href="#DejaVuSans-35"/>
      <use x="63.623047" xlink:href="#DejaVuSans-66"/>
      <use x="98.828125" xlink:href="#DejaVuSans-207b"/>
     </g>
    </g>
    <g id="line2d_133">
     <path d="M 392.490938 265.089938 
L 412.490938 265.089938 
" style="fill:none;stroke:#e377c2;stroke-linecap:square;stroke-width:1.5;"/>
    </g>
    <g id="line2d_134"/>
    <g id="text_36">
     <!-- 5f -->
     <g transform="translate(420.490938 268.589938)scale(0.1 -0.1)">
      <use xlink:href="#DejaVuSans-35"/>
      <use x="63.623047" xlink:href="#DejaVuSans-66"/>
     </g>
    </g>
   </g>
  </g>
 </g>
 <defs>
  <clipPath id="p232f143dd0">
   <rect height="134.76275" width="388.971788" x="58.508212" y="13.32"/>
  </clipPath>
  <clipPath id="pa20d5679e8">
   <rect height="134.76275" width="388.971788" x="58.508212" y="163.92275"/>
  </clipPath>
 </defs>
</svg>
